<?xml version="1.0" encoding="utf-8"?>
<!-- Generator: Adobe Illustrator 27.9.0, SVG Export Plug-In . SVG Version: 6.00 Build 0)  -->
<svg version="1.1" id="Layer_1" xmlns="http://www.w3.org/2000/svg" xmlns:xlink="http://www.w3.org/1999/xlink" x="0px" y="0px"
	 viewBox="0 0 300.3 99.7" style="enable-background:new 0 0 300.3 99.7;" xml:space="preserve">
<style type="text/css">
	.st0{fill:none;stroke:#106B37;stroke-width:3;stroke-miterlimit:10;}
	.st1{fill:none;stroke:#106B37;stroke-width:3;stroke-miterlimit:10;stroke-dasharray:12.4204,12.4204;}
	.st2{fill:#106B37;}
</style>
<g>
	<g>
		<path class="st0" d="M6.2,16.7c0.2,0,2.3-0.3,5.9-1"/>
		<path class="st1" d="M24.3,13.7C72.2,6.6,202.7-5.7,274.7,72"/>
		<path class="st0" d="M278.8,76.6c1.3,1.5,2.6,3.1,3.8,4.6"/>
		<g>
			<path class="st2" d="M293.1,70.3c-2.8,6.8-3.2,14.5-2.5,21.7c-6.8-2.7-14.3-4-21.6-3.4l-2.3-3c7.2-0.5,14.2,0.1,20.8,2.3
				c-0.4-7.1,0.9-14.2,3.3-20.8L293.1,70.3z"/>
			<path class="st2" d="M287.6,63.1c-2.8,6.8-3.2,14.5-2.5,21.7c-6.8-2.7-14.3-4-21.6-3.4l-2.3-3c7.2-0.5,14.2,0.1,20.8,2.3
				c-0.4-7.1,0.9-14.2,3.3-20.8L287.6,63.1z"/>
		</g>
	</g>
</g>
</svg>
