<?xml version="1.0" encoding="utf-8"?>
<!-- Generator: Adobe Illustrator 27.9.0, SVG Export Plug-In . SVG Version: 6.00 Build 0)  -->
<svg version="1.1" id="Layer_1" xmlns="http://www.w3.org/2000/svg" xmlns:xlink="http://www.w3.org/1999/xlink" x="0px" y="0px"
	 viewBox="0 0 300.3 99.7" style="enable-background:new 0 0 300.3 99.7;" xml:space="preserve">
<style type="text/css">
	.st0{fill:none;stroke:#106B37;stroke-width:3;stroke-miterlimit:10;}
	.st1{fill:none;stroke:#106B37;stroke-width:3;stroke-miterlimit:10;stroke-dasharray:12.4204,12.4204;}
	.st2{fill:#106B37;}
</style>
<g>
	<g>
		<path class="st0" d="M290.6,16.7c-0.2,0-2.3-0.3-5.9-1"/>
		<path class="st1" d="M272.4,13.7C224.6,6.6,94-5.7,22,72"/>
		<path class="st0" d="M17.9,76.6c-1.3,1.5-2.6,3.1-3.8,4.6"/>
		<g>
			<path class="st2" d="M27.8,88.7c-7.3-0.9-14.8,0.8-21.6,3.4c0.8-7.3,0-14.9-2.5-21.7l2.3-3C8.3,74.1,9.6,81,9.2,88
				c6.7-2.2,13.9-2.9,20.9-2.4L27.8,88.7z"/>
			<path class="st2" d="M33.3,81.5c-7.3-0.9-14.8,0.8-21.6,3.4c0.8-7.3,0-14.9-2.5-21.7l2.3-3c2.4,6.8,3.7,13.7,3.3,20.7
				c6.7-2.2,13.9-2.9,20.9-2.4L33.3,81.5z"/>
		</g>
	</g>
</g>
</svg>
