<?xml version="1.0" encoding="utf-8"?>
<!-- Generator: Adobe Illustrator 27.9.0, SVG Export Plug-In . SVG Version: 6.00 Build 0)  -->
<svg version="1.1" id="Layer_1" xmlns="http://www.w3.org/2000/svg" xmlns:xlink="http://www.w3.org/1999/xlink" x="0px" y="0px"
	 viewBox="0 0 500 500" style="enable-background:new 0 0 500 500;" xml:space="preserve">
<style type="text/css">
	.st0{fill:#FFF800;}
</style>
<g>
	<path class="st0" d="M204.2,433.2c5,5,7.5,11.1,7.5,18.3c0,7.2-2.5,13.3-7.5,18.3c-2.8,2.8-5.8,5-9.2,6.7c-3.3,1.1-6.7,1.7-10,1.7
		c-2.8,0-5.5-0.8-8.3-2.5c-3.3-1.7-6.4-3.6-9.2-5.8c-33.3-32.1-82.9-80.7-148.9-145.6c-5-5-7.5-11.1-7.5-18.3
		c0-7.2,2.5-13.3,7.5-18.3s11.1-7.5,18.3-7.5c3.9,0,7.8,0.8,11.6,2.5c2.2,1.1,4.4,2.8,6.7,5C88.6,319.8,138.2,368.3,204.2,433.2z
		 M23.7,188.6c-2.8-2.8-4.7-5.8-5.8-9.2c-1.1-2.8-1.7-6.1-1.7-10c0-3.9,0.5-7.2,1.7-10c1.1-3.3,3-6.1,5.8-8.3
		c31.6-30,78.8-74.9,141.4-134.8c5-5,11.1-7.2,18.3-6.7c7.8,0,14.1,2.5,19.1,7.5s7.2,11.4,6.7,19.1c-0.6,7.2-3.3,13.3-8.3,18.3
		C173.7,80.2,133,119,78.6,171.2c27.2,27.2,67.7,67.9,121.5,122.3c5,5,7.5,11.1,7.5,18.3c0,7.2-2.5,13.3-7.5,18.3
		c-2.8,2.8-5.8,4.7-9.2,5.8c-2.8,1.1-5.8,1.7-9.2,1.7c0,0.6-0.3,0.8-0.8,0.8c-3.3,0-6.7-0.8-10-2.5c-3.3-1.1-6.4-3-9.2-5.8
		C131.3,299,85.3,251.9,23.7,188.6z M157.6,157.9c31.1-31.1,77.7-77.1,139.8-138.1c5-5,11.1-7.5,18.3-7.5c7.2,0,13.6,2.5,19.1,7.5
		c30.5,29.9,76.8,74.9,139,134.8c5.5,5,8.3,11.1,8.3,18.3c0,7.2-2.5,13.3-7.5,18.3c-5,5.5-11.1,8.3-18.3,8.3
		c-7.2,0.6-13.6-1.9-19.1-7.5c-26.6-26.1-66.9-65.2-120.7-117.3c-26.6,26.6-66.8,66.6-120.6,119.8c-2.8,2.8-5.8,4.7-9.2,5.8
		c-3.3,1.7-6.7,2.5-10,2.5s-6.7-0.8-10-2.5c-3.3-1.1-6.4-3-9.2-5.8c-5-5-7.5-11.1-7.5-18.3C150.2,169,152.7,162.8,157.6,157.9z
		 M481.3,324.3C448,357,398.4,405.5,332.4,469.9c-2.2,2.8-5,5-8.3,6.7c-3.3,1.1-6.7,1.7-10,1.7c-3.3,0-6.7-0.5-10-1.7
		c-3.3-1.7-6.4-3.9-9.2-6.7c-5-5-7.5-11.1-7.5-18.3c0-7.2,2.5-13.3,7.5-18.3c33.3-32.1,83.2-80.7,149.8-145.6c5-5,11.1-7.5,18.3-7.5
		c7.2,0,13.3,2.5,18.3,7.5c5,5,7.5,11.1,7.5,18.3C488.8,313.2,486.3,319.3,481.3,324.3z"/>
</g>
</svg>
