<?xml version="1.0" encoding="utf-8"?>
<!-- Generator: Adobe Illustrator 27.9.0, SVG Export Plug-In . SVG Version: 6.00 Build 0)  -->
<svg version="1.1" id="Layer_1" xmlns="http://www.w3.org/2000/svg" xmlns:xlink="http://www.w3.org/1999/xlink" x="0px" y="0px"
	 viewBox="0 0 500 500" style="enable-background:new 0 0 500 500;" xml:space="preserve">
<style type="text/css">
	.st0{fill:#FFF200;}
</style>
<g>
	<path class="st0" d="M319.5,330.8c-29.9,31-74.8,77.4-134.6,138.9c-2.8,2.3-5.6,4-8.5,5.1c-2.8,1.2-5.6,1.7-8.5,1.7
		c-3.4,0-6.5-0.5-9.3-1.7c-2.8-1.1-5.4-2.8-7.6-5.1c-31-30.5-77.1-75.9-138-136.3c-4.5-5.1-6.8-10.7-6.8-16.9
		c0-6.8,2.2-12.4,6.8-16.9c29.9-29.9,74.5-74.8,133.8-134.6c5.1-4.5,10.7-6.8,16.9-6.8c6.8-0.5,12.4,1.7,16.9,6.8
		c31,29.4,77.6,73.7,139.7,132.9c2.8,2.8,4.8,5.6,5.9,8.5c1.1,2.8,1.7,5.6,1.7,8.5c0,3.4-0.6,6.5-1.7,9.3
		C324.6,326.9,322.3,329.1,319.5,330.8z M268.7,316.4c-23.2-22-58.1-55.3-105-99.9c-22,22.6-55,56.2-99.1,100.8
		c22.6,23.2,57,57.3,103.3,102.5C189.9,396.6,223.5,362.1,268.7,316.4z M138.3,46.3c-4.5-4.5-6.8-10.2-6.8-16.9
		c0-6.2,2.2-11.8,6.8-16.9c5.1-4.5,10.7-6.8,16.9-6.8c6.8,0,12.4,2.3,16.9,6.8c35,35,87.8,87.8,158.4,158.3
		c4.5,4.5,6.8,10.2,6.8,16.9c0,6.2-2.3,11.9-6.8,16.9c-2.3,2.3-5.1,4-8.5,5.1c-2.8,1.7-5.6,2.5-8.5,2.5h-0.8
		c-2.8-0.5-5.6-1.4-8.5-2.5c-2.8-1.1-5.4-2.8-7.6-5.1C261.1,169.6,208.3,116.9,138.3,46.3z M476.2,285.9c5.1,5.1,7.6,10.7,7.6,16.9
		c0,6.8-2.5,12.4-7.6,16.9c-35,35-87.8,87.8-158.4,158.4c-2.3,2.3-4.8,4-7.6,5.1c-2.8,1.1-5.9,1.7-9.3,1.7c-2.8,0-5.6-0.6-8.5-1.7
		c-2.8-1.1-5.6-2.8-8.5-5.1c-4.5-5.1-6.8-10.7-6.8-16.9c0-6.8,2.2-12.4,6.8-16.9c35-35,86.9-86.9,155.8-155.8
		c0.5-0.5,1.4-1.4,2.5-2.5c4.5-5.1,10.2-7.6,16.9-7.6S471.6,280.8,476.2,285.9z M289.9,59c-4.5-5.1-6.8-10.7-6.8-16.9
		c0-6.8,2.2-12.4,6.8-16.9c5.1-5.1,11-7.6,17.8-7.6c6.2,0,11.9,2.5,16.9,7.6c35,35,87.5,87.5,157.5,157.5c5.1,5.1,7.6,10.7,7.6,16.9
		c0,6.8-2.5,12.4-7.6,16.9c-2.3,2.8-4.8,4.8-7.6,5.9c-3.4,1.2-6.5,1.7-9.3,1.7c-2.8,0-5.9-0.5-9.3-1.7c-2.8-1.1-5.4-3.1-7.6-5.9
		C413.2,181.5,360.4,129,289.9,59z"/>
</g>
</svg>
