<?xml version="1.0" encoding="utf-8"?>
<!-- Generator: Adobe Illustrator 27.9.0, SVG Export Plug-In . SVG Version: 6.00 Build 0)  -->
<svg version="1.1" id="Layer_1" xmlns="http://www.w3.org/2000/svg" xmlns:xlink="http://www.w3.org/1999/xlink" x="0px" y="0px"
	 viewBox="0 0 500 500" style="enable-background:new 0 0 500 500;" xml:space="preserve">
<style type="text/css">
	.st0{fill:#FFFF17;}
</style>
<g>
	<path class="st0" d="M436.2,309.3c5.2,5.1,7.8,11.4,7.8,18.7c0,7.4-3.3,13.3-9.7,17.9c-35.6,30.7-89.4,76.1-161.3,136.3
		c-2.6,2.9-5.8,4.8-9.7,6c-3.9,1.2-7.5,1.7-10.7,1.7c-3.9,0-7.8-0.5-11.7-1.7c-3.9-1.1-7.1-3.1-9.7-6
		c-38.2-31.8-95.2-80.1-171-144.8c-6.5-4.5-9.7-10.5-9.7-17.9c0-6.8,2.6-13.1,7.8-18.7c5.8-5.7,13-8.5,21.4-8.5
		c7.8,0,14.9,2.3,21.4,6.8c33.7,28.4,84.2,70.7,151.6,126.9c31.1-26.1,77.7-65.3,139.9-117.6c2.6-2.2,5.5-4.3,8.7-6
		c3.2-1.1,7.4-1.7,12.6-1.7C422.2,300.7,429.7,303.6,436.2,309.3z M437.1,160.2c6.5,5.1,9.4,11.4,8.7,18.7c0,7.4-2.9,13.6-8.7,18.7
		c-36.9,31.8-92.7,79.5-167.2,143.1c-2.6,2.9-5.5,4.8-8.7,6c-3.9,1.2-7.8,1.7-11.7,1.7c-4.5,0-8.4-0.5-11.7-1.7
		c-3.9-1.1-7.1-3.1-9.7-6c-35.6-31.2-88.8-78.7-159.4-142.3c-5.8-5.1-8.7-11.4-8.7-18.7c0-7.4,2.9-13.3,8.7-17.9
		c37.6-32.9,94.6-82.6,171-149.1c5.2-4.5,12-6.8,20.4-6.8c8.4,0,15.5,2.3,21.4,6.8c5.2,5.1,7.8,11.4,7.8,18.7
		c0,7.4-2.6,13.6-7.8,18.7c-33,29-82.6,72.1-148.7,129.5c25.9,23.9,65.1,59.4,117.6,106.5c32.4-27.8,81-69.9,145.8-126.1
		c6.5-4.5,13.6-6.8,21.4-6.8S431.9,155.6,437.1,160.2z M215.6,173.8c40.8-34.1,101.7-85.7,182.7-155c5.2-5.1,12-7.7,20.4-7.7
		c8.4,0,15.5,2.6,21.4,7.7c6.5,5.1,9.7,11.4,9.7,18.7c0,7.4-3.3,13.6-9.7,18.7C399.2,90.3,338.3,142,257.4,211.3
		c-2.6,2.3-5.8,4-9.7,5.1c-3.9,1.2-7.5,1.7-10.7,1.7c-3.9,0-7.8-0.9-11.7-2.6c-3.9-1.7-7.1-3.7-9.7-6c-5.8-5.7-8.7-11.9-8.7-18.7
		S209.7,178.4,215.6,173.8z"/>
</g>
</svg>
