<?xml version="1.0" encoding="utf-8"?>
<!-- Generator: Adobe Illustrator 27.9.0, SVG Export Plug-In . SVG Version: 6.00 Build 0)  -->
<svg version="1.1" id="Layer_1" xmlns="http://www.w3.org/2000/svg" xmlns:xlink="http://www.w3.org/1999/xlink" x="0px" y="0px"
	 viewBox="0 0 500 500" style="enable-background:new 0 0 500 500;" xml:space="preserve">
<style type="text/css">
	.st0{fill:#FCF500;}
</style>
<g>
	<path class="st0" d="M342.9,449.2c4.9,4.9,7.4,10.6,7.4,17.2c0,6.6-2.5,12.3-7.4,17.2c-2.2,2.2-4.6,3.8-7.4,4.9
		c-3.3,1.1-6.3,1.6-9,1.6c-3.3,0-6.3-0.5-9-1.6c-3.3-1.1-6-2.7-8.2-4.9C244.9,418,148,320.3,18.7,190.4c-4.9-4.9-7.4-10.6-7.4-17.2
		s2.5-12.3,7.4-17.2s10.6-7.4,17.2-7.4s12,2.5,16.4,7.4c29.5,29.5,73.2,73.2,131,131c23.5-23.5,58.7-58.7,105.6-105.6
		c-28.4-28.9-70.7-72.3-126.9-130.2c-4.9-4.9-7.4-10.6-7.4-17.2s2.5-12.3,7.4-17.2c4.4-4.9,9.8-7.4,16.4-7.4s12.3,2.5,17.2,7.4
		c31.7,33.3,79.1,83,142.5,149c4.9,4.9,7.4,10.6,7.4,17.2s-2.5,12.3-7.4,17.2c-26.7,26.7-67.4,66.9-122,120.4
		C244.4,349.6,286.7,392.4,342.9,449.2z M198.8,448.3c4.9,3.8,7.4,9.3,7.4,16.4c0,6.6-2.5,12.3-7.4,17.2c-2.2,2.8-4.6,4.6-7.4,5.7
		c-3.3,1.1-6.3,1.6-9,1.6c-3.3,0-6.3-0.5-9-1.6c-3.3-1.1-6-3-8.2-5.7C132.5,449.7,83.6,401.4,18.7,337c-4.9-4.4-7.4-10.1-7.4-17.2
		c0-6.6,2.5-12.3,7.4-17.2c4.4-4.9,9.8-7.4,16.4-7.4c7.1,0,12.8,2.5,17.2,7.4C85,334.8,133.8,383.4,198.8,448.3z M26.9,59.4
		c-4.9-4.4-7.4-9.8-7.4-16.4c0-7.1,2.5-12.8,7.4-17.2c4.4-4.9,10.1-7.4,17.2-7.4c6.6,0,12.3,2.5,17.2,7.4
		c32.2,31.7,81.1,79.7,146.6,144.1c4.9,3.8,7.4,9.3,7.4,16.4c0,6.6-2.5,12.3-7.4,17.2c-2.7,2.2-5.5,4.1-8.2,5.7
		c-2.7,1.1-5.7,1.6-9,1.6c-3.3,0-6.3-0.5-9-1.6c-2.7-1.6-5.5-3.5-8.2-5.7C141.2,171.3,92.4,123.3,26.9,59.4z M479.7,479.5
		c-2.2,2.8-4.6,4.6-7.4,5.7c-3.3,1.1-6.3,1.6-9,1.6c-3.3,0-6.3-0.5-9-1.6c-3.3-1.1-6-3-8.2-5.7c-30-30.6-75.3-76.4-135.9-137.6
		c-3.8-4.9-5.7-10.6-5.7-17.2c0-6.6,1.9-12.3,5.7-17.2c26.2-27.3,65-68.5,116.3-123.6c-26.7-28.4-67.4-71.5-122-129.4
		c-4.4-4.9-6.6-10.6-6.6-17.2c0.5-6,3-11.5,7.4-16.4c4.9-4.4,10.6-6.6,17.2-6.6c6.6,0,12.3,2.5,17.2,7.4
		c30.6,32.7,76.2,81.6,136.8,146.6c4.4,4.4,6.6,9.8,6.6,16.4c0,6-2.2,11.5-6.6,16.4c-25.7,27.3-64.2,68.5-115.5,123.6
		c26.7,26.7,66.9,67.1,120.4,121.2c4.9,4.9,7.4,10.4,7.4,16.4C488.2,468.8,485.1,474.5,479.7,479.5z"/>
</g>
</svg>
