<?xml version="1.0" encoding="utf-8"?>
<!-- Generator: Adobe Illustrator 27.9.0, SVG Export Plug-In . SVG Version: 6.00 Build 0)  -->
<svg version="1.1" id="Layer_1" xmlns="http://www.w3.org/2000/svg" xmlns:xlink="http://www.w3.org/1999/xlink" x="0px" y="0px"
	 viewBox="0 0 500 500" style="enable-background:new 0 0 500 500;" xml:space="preserve">
<style type="text/css">
	.st0{fill:#EDFF00;}
</style>
<g>
	<path class="st0" d="M182.8,216.5c-27.5,28.1-69,69.6-124.5,124.5c-2.2,2.8-5,4.8-8.4,5.9c-2.8,1.1-5.9,1.7-9.3,1.7
		c-2.8,0-5.9-0.5-9.3-1.7c-2.8-1.1-5.3-3.1-7.6-5.9c-5-5-7.6-10.6-7.6-16.8c0-6.7,2.5-12.6,7.6-17.7c27.5-27.5,68.7-69,123.7-124.5
		C118.8,152.9,75.4,109.4,17,51.6c-5-5-7.6-10.9-7.6-17.7S12,21.3,17,16.2c5-4.5,10.9-6.7,17.7-6.7s12.6,2.2,17.7,6.7
		C81,45.4,124.4,88.6,182.8,145.8c26.4-25.8,66.2-64.8,119.5-117c5-5,10.9-7.6,17.7-7.6c6.2,0,11.8,2.5,16.8,7.6
		c33.1,33.1,83,82.5,149.8,148.1c5,4.5,7.6,10.1,7.6,16.8c0,7.3-2.5,13.5-7.6,18.5c-4.5,4.5-10.1,6.7-16.8,6.7
		c-7.3,0-13.5-2.2-18.5-6.7C422.1,183.2,378.3,139.4,320,81c-22.4,22.4-56.1,56.1-101,101c28.1,28.1,70.4,70.4,127.1,127.1
		c4.5,5,6.7,10.9,6.7,17.7c0,6.2-2.2,11.8-6.7,16.8c-2.8,2.8-5.6,4.8-8.4,5.9c-3.4,1.1-6.5,1.7-9.3,1.7c-3.4,0-6.5-0.5-9.3-1.7
		c-2.8-1.1-5.6-3.1-8.4-5.9C282.1,315.5,239.5,273.2,182.8,216.5z M346.9,447.1c5,5,7.6,10.9,7.6,17.7s-2.5,12.3-7.6,16.8
		c-2.2,2.8-5,4.8-8.4,5.9c-2.8,1.1-5.9,1.7-9.3,1.7c-2.8,0-5.9-0.6-9.3-1.7c-2.8-1.1-5.3-3.1-7.6-5.9
		c-35.3-35.3-88.1-88.4-158.2-159.1c-5-5-7.6-10.9-7.6-17.7c0-6.2,2.5-11.8,7.6-16.8c2.2-2.2,4.8-4.2,7.6-5.9
		c2.8-1.1,6.2-1.7,10.1-1.7c6.2,0,11.8,2.5,16.8,7.6C224,323.4,276.7,376.4,346.9,447.1z M482.4,309.9c5,5,7.6,10.9,7.6,17.7
		s-2.5,12.6-7.6,17.7c-2.2,2.2-5,3.9-8.4,5c-2.8,1.7-5.6,2.5-8.4,2.5c-3.4,0-6.5-0.8-9.3-2.5c-3.4-1.1-6.2-2.8-8.4-5
		c-35.3-35.3-88.1-88.1-158.2-158.2c-5-5-7.6-10.9-7.6-17.7s2.5-12.3,7.6-16.8c5-5,10.9-7.6,17.7-7.6s12.3,2.5,16.8,7.6
		C359.5,187.4,412.2,239.8,482.4,309.9z"/>
</g>
</svg>
