<?xml version="1.0" encoding="utf-8"?>
<!-- Generator: Adobe Illustrator 27.7.0, SVG Export Plug-In . SVG Version: 6.00 Build 0)  -->
<svg version="1.1" id="Layer_1" xmlns="http://www.w3.org/2000/svg" xmlns:xlink="http://www.w3.org/1999/xlink" x="0px" y="0px"
	 viewBox="0 0 297.97 43.3" style="enable-background:new 0 0 297.97 43.3;" xml:space="preserve">
<style type="text/css">
	.st0{fill:url(#SVGID_1_);stroke:#E2001A;stroke-miterlimit:10;}
	.st1{fill:url(#SVGID_00000059288021559543960900000003753669207019429542_);stroke:#E2001A;stroke-miterlimit:10;}
	.st2{fill:url(#SVGID_00000076599801243113758780000018187766302499754671_);stroke:#E2001A;stroke-miterlimit:10;}
	.st3{fill:url(#SVGID_00000041987545420005808710000017669719832128449952_);stroke:#E2001A;stroke-miterlimit:10;}
	.st4{fill:url(#SVGID_00000012468568485141343810000000626574660865916064_);stroke:#E2001A;stroke-miterlimit:10;}
	.st5{fill:url(#SVGID_00000098914124692396700400000004253677212828208042_);stroke:#E2001A;stroke-miterlimit:10;}
	.st6{fill:url(#SVGID_00000118398533923913139410000006265579705152062142_);stroke:#9D391A;stroke-miterlimit:10;}
	.st7{fill:url(#SVGID_00000130644369324791525610000002490163155442132116_);stroke:#9D391A;stroke-miterlimit:10;}
	.st8{fill:url(#SVGID_00000111165225831571224040000005244696395237478277_);stroke:#9D391A;stroke-miterlimit:10;}
	.st9{fill:url(#SVGID_00000058564497911421620750000017059921594833003191_);stroke:#9D391A;stroke-miterlimit:10;}
	.st10{fill:url(#SVGID_00000013191063399570474500000018271687552147774630_);stroke:#9D391A;stroke-miterlimit:10;}
</style>
<g>
	<linearGradient id="SVGID_1_" gradientUnits="userSpaceOnUse" x1="18.1838" y1="35.3528" x2="18.1838" y2="5.3528">
		<stop  offset="0" style="stop-color:#FFED00"/>
		<stop  offset="0.1363" style="stop-color:#FFEA00"/>
		<stop  offset="0.2633" style="stop-color:#FFE300"/>
		<stop  offset="0.3867" style="stop-color:#FFD700"/>
		<stop  offset="0.5078" style="stop-color:#FDC600"/>
		<stop  offset="0.6273" style="stop-color:#F8AE00"/>
		<stop  offset="0.7456" style="stop-color:#F18D00"/>
		<stop  offset="0.8629" style="stop-color:#EA620E"/>
		<stop  offset="0.9767" style="stop-color:#E32119"/>
		<stop  offset="1" style="stop-color:#E2001A"/>
	</linearGradient>
	<path class="st0" d="M29.66,15.67l-0.48-0.14l-2.06,1.06l-0.48-0.62l-0.1,0.82l-0.34-0.05l-0.24,0.14l-0.67,0.05l-0.14-0.72
		l-0.72-0.43l-0.24-0.86l-0.1,1.1l0.43,0.29l0.14,0.86l-1.01,0.62l-0.77-1.15l-0.24,1.54l-0.29-0.05l-0.34,0.43l-1.3-3.02
		l-2.21-2.06l-2.11,1.58l-1.1,2.5l7.2,2.83l7.2,6.82l-3.36,6.34c-0.16,0.03-0.62,0.14-1.37,0.34c-0.75,0.19-1.58,0.4-2.5,0.62
		c-0.91,0.22-1.72,0.42-2.42,0.6c-0.7,0.18-1.07,0.26-1.1,0.26c-0.29,0-0.55-0.01-0.79-0.02c-0.24-0.02-0.47-0.04-0.7-0.07
		c-0.16-0.03-0.35-0.06-0.58-0.1l-4.18-0.34c-0.54-0.1-1.02-0.21-1.44-0.34c-0.16-0.03-0.35-0.08-0.58-0.14l-4.03-0.96l0.62-0.14
		L7,32.47l3.55,0.91l-3.17-1.3l0.96-0.82L8.1,29.45l1.15-0.1L8.3,28.78l0.82-1.73c0-0.06,0-0.18,0-0.34
		c-0.03-0.22-0.05-0.45-0.05-0.67c0-0.22,0.02-0.37,0.05-0.43L13,26.66c0.26,0.06,0.5,0.13,0.72,0.19c0.35,0.13,0.75,0.24,1.2,0.34
		c0.38,0.06,0.72,0.11,1.01,0.14c0.26,0.03,0.58,0.08,0.96,0.14l3.98,0.53c0.1,0,0.18,0,0.24,0c0.06-0.03,0.14-0.05,0.22-0.05
		c0.08,0,0.14,0,0.17,0l0.43-0.34c-0.64-0.45-1.31-0.74-2.02-0.86c-0.22-0.06-0.45-0.13-0.67-0.19l-7.87-2.3L7.1,18.07l3.41-8.59
		l8.16-4.13l7.2,3.46L29.66,15.67z M22.31,15.24l0.05-0.67l-0.58-1.54l0.24,2.06L22.31,15.24z"/>
	
		<linearGradient id="SVGID_00000134248977536937010950000014556290219380659894_" gradientUnits="userSpaceOnUse" x1="43.8508" y1="35.2567" x2="43.8508" y2="4.8729">
		<stop  offset="0" style="stop-color:#FFED00"/>
		<stop  offset="0.1363" style="stop-color:#FFEA00"/>
		<stop  offset="0.2633" style="stop-color:#FFE300"/>
		<stop  offset="0.3867" style="stop-color:#FFD700"/>
		<stop  offset="0.5078" style="stop-color:#FDC600"/>
		<stop  offset="0.6273" style="stop-color:#F8AE00"/>
		<stop  offset="0.7456" style="stop-color:#F18D00"/>
		<stop  offset="0.8629" style="stop-color:#EA620E"/>
		<stop  offset="0.9767" style="stop-color:#E32119"/>
		<stop  offset="1" style="stop-color:#E2001A"/>
	</linearGradient>
	<path style="fill:url(#SVGID_00000134248977536937010950000014556290219380659894_);stroke:#E2001A;stroke-miterlimit:10;" d="
		M53.89,34.87l-2.69,0.38l-0.29-0.82l-0.43,0.82l-0.34-0.14l-0.29,0.1l-0.82-0.19l0.14-0.91l-0.62-0.72v-1.06l-0.48,1.2l0.38,0.48
		l-0.14,1.01c-0.13,0.03-0.22,0.05-0.29,0.05c-0.06,0.03-0.16,0.06-0.29,0.1c-0.13,0-0.27-0.02-0.43-0.05c-0.13,0-0.27,0-0.43,0
		l-0.38-1.34l-0.67,1.3h-0.19c0.1-1.02,0.14-2.05,0.14-3.07c0.03-0.32,0.05-0.66,0.05-1.01c-0.67-0.03-1.34-0.08-2.02-0.14
		c-0.67-0.03-1.34-0.06-2.02-0.1c0.06,0.8,0.1,1.62,0.1,2.45v1.01l-1.87,0.24l-0.29-0.82l-0.38,0.86l-0.34-0.19l-0.34,0.1
		l-0.77-0.19l0.1-0.91l-0.62-0.72l0.05-1.06l-0.48,1.2l0.34,0.53l-0.14,0.96l-1.39,0.34l-0.43-1.58l-0.82,1.63l-0.34-0.14
		l-0.48,0.14l-0.1-4.32c0-0.29-0.02-0.58-0.05-0.86c-0.03-0.45-0.03-0.9,0-1.34l0.43-6.38c0-0.35,0-0.69,0-1.01
		c0-0.64,0.06-1.36,0.19-2.16c0.16-0.74,0.37-1.38,0.62-1.92c0.13-0.35,0.27-0.75,0.43-1.2l2.16-6.29l7.97-4.22l6.19,4.03l0.77,2.88
		l1.54,5.71c0.06,0.61,0.1,1.15,0.1,1.63c0,0.29,0,0.62,0,1.01l0.24,5.33c0,2.08-0.06,4.18-0.19,6.29
		C53.96,32.81,53.93,33.85,53.89,34.87z M35.22,31.22l0.29-0.77l-0.05-1.92l-0.53,2.4L35.22,31.22z M41.7,28.2l0.29,0.19
		c0.03-0.06,0.06-0.17,0.07-0.31s0.03-0.29,0.05-0.43c0.02-0.14,0.02-0.25,0.02-0.31c0-0.1,0-0.18,0-0.24c0-0.06,0-0.11,0-0.14
		c0-0.03,0.02-0.07,0.05-0.12c0.03-0.05,0.08-0.12,0.14-0.22c0.03,0,0.05-0.02,0.05-0.05v0.14c0,0.06,0,0.13,0,0.19
		c-0.03,0.1-0.05,0.18-0.05,0.24l0.1-0.29h0.05l0.05-0.05l0.14-0.05c0-0.19,0-0.35,0-0.48l0.1-0.1l-0.05,0.05
		c0,0.03,0.02,0.05,0.05,0.05h0.1v-0.05c0-0.03-0.02-0.05-0.05-0.05c0-0.03-0.01-0.06-0.02-0.07c-0.02-0.02-0.04-0.02-0.07-0.02
		v-0.1v-0.05c0.03-0.03,0.05-0.08,0.05-0.14v-0.1c-0.03,0-0.06,0.02-0.1,0.05c-0.03,0-0.06,0-0.07,0c-0.02,0-0.04,0-0.07,0
		c0,0.03,0,0.06,0,0.1c-0.03,0.03-0.05,0.08-0.05,0.14c0,0.06,0.01,0.1,0.02,0.12c0.02,0.02,0.02,0.04,0.02,0.07
		c0.03,0,0.06,0.02,0.07,0.05c0.02,0.03,0.02,0.08,0.02,0.14c0,0.03,0,0.06,0,0.07c0,0.02,0,0.04,0,0.07
		c-0.03,0-0.05,0.02-0.05,0.05c0-0.03,0-0.06,0-0.1c0-0.03-0.02-0.06-0.05-0.1c-0.03,0-0.06,0-0.1,0c-0.03,0-0.06,0-0.07,0
		s-0.04,0-0.07,0v-0.19v-0.14v-0.05h-0.05l-0.05-0.1h-0.05c0-0.06,0-0.11,0-0.14c0-0.03,0-0.06,0-0.1c0-0.16,0-0.29,0-0.38
		c0.03-0.13,0.04-0.23,0.02-0.31c-0.02-0.08-0.06-0.16-0.14-0.24c-0.08-0.08-0.23-0.17-0.46-0.26c0.03-0.06,0.06-0.16,0.07-0.29
		c0.02-0.13,0.02-0.26,0.02-0.41s0-0.25,0-0.31c0-0.1,0-0.19,0-0.29l-0.14,1.34c0.03,0.03,0.08,0.08,0.14,0.14
		c0.1,0.06,0.19,0.14,0.29,0.22c0.1,0.08,0.14,0.17,0.14,0.26c0,0.03-0.01,0.16-0.02,0.38c-0.02,0.22-0.04,0.47-0.07,0.74
		c-0.03,0.27-0.06,0.52-0.1,0.74c-0.03,0.22-0.05,0.35-0.05,0.38c-0.06,0.13-0.1,0.27-0.1,0.43c0,0.03,0.01,0.08,0.02,0.14
		c0.02,0.06,0.04,0.13,0.07,0.19l-0.1-0.05c0.03,0.03,0.04,0.06,0.02,0.07C41.76,28.19,41.73,28.2,41.7,28.2z M41.94,22.63
		c0.7,0.03,1.42,0.06,2.16,0.1c0.7,0.06,1.41,0.11,2.11,0.14c0-0.86,0.02-1.73,0.05-2.59c0-0.86,0-1.73,0-2.59
		c0-0.64-0.03-1.43-0.1-2.38c-0.06-0.94-0.26-1.7-0.58-2.28l-2.21,2.06c-0.35,1.09-0.66,2.33-0.94,3.72
		C42.17,20.21,42.01,21.48,41.94,22.63z M46.36,32.04l0.34-0.77l-0.1-1.92l-0.48,2.4L46.36,32.04z"/>
	
		<linearGradient id="SVGID_00000093883301600178006740000006799308103000566675_" gradientUnits="userSpaceOnUse" x1="67.3352" y1="35.7366" x2="67.3352" y2="5.2567">
		<stop  offset="0" style="stop-color:#FFED00"/>
		<stop  offset="0.1363" style="stop-color:#FFEA00"/>
		<stop  offset="0.2633" style="stop-color:#FFE300"/>
		<stop  offset="0.3867" style="stop-color:#FFD700"/>
		<stop  offset="0.5078" style="stop-color:#FDC600"/>
		<stop  offset="0.6273" style="stop-color:#F8AE00"/>
		<stop  offset="0.7456" style="stop-color:#F18D00"/>
		<stop  offset="0.8629" style="stop-color:#EA620E"/>
		<stop  offset="0.9767" style="stop-color:#E32119"/>
		<stop  offset="1" style="stop-color:#E2001A"/>
	</linearGradient>
	<path style="fill:url(#SVGID_00000093883301600178006740000006799308103000566675_);stroke:#E2001A;stroke-miterlimit:10;" d="
		M69.26,34.87l-1.63,0.24l-0.24-0.72L67,35.11l-0.29-0.14l-0.24,0.1l-0.67-0.14l0.1-0.82l-0.53-0.58v-0.91l-0.38,1.01l0.29,0.43
		l-0.14,0.86l-1.3-0.34l-0.24-0.77l-0.34,0.67l-1.82-0.43c-0.51-3.04-1.02-6.1-1.54-9.17c-0.54-3.07-1.07-6.13-1.58-9.17
		c-0.13-0.7-0.27-1.42-0.43-2.16c-0.19-0.99-0.37-1.97-0.53-2.93c-0.16-1.12-0.29-2.24-0.38-3.36c-0.06-0.58-0.13-1.14-0.19-1.68
		c0.1-0.03,0.21-0.06,0.34-0.07c0.13-0.02,0.24-0.02,0.34-0.02h1.68l0.19,0.48l0.24-0.48h1.3l-0.1,0.77l0.58,0.62L61.29,7.8
		l0.43-1.01l-0.34-0.48l0.14-0.82h1.25l0.29,1.06l0.53-1.06h1.44c0.51,4.54,1.25,9.04,2.21,13.49l0.58-2.26l1.2-4.46
		c0.1-0.51,0.14-0.99,0.14-1.44c0.03-0.26,0.06-0.54,0.1-0.86l0.48-4.56c2.75,0,5.47-0.05,8.16-0.14v0.29c0,0.06,0,0.11,0,0.14
		c0,0.03,0,0.06,0,0.1L76.02,16.1c-0.1,0.64-0.18,1.23-0.24,1.78c-0.1,1.02-0.32,2.16-0.67,3.41c-0.35,1.12-0.77,2.11-1.25,2.98
		c-0.22,0.45-0.46,0.96-0.72,1.54L69.26,34.87z M63.16,8.04l-0.24,0.67l0.05,1.58l0.43-2.02L63.16,8.04z M63.49,32.33l0.29-0.62
		l-0.1-1.63l-0.43,2.06L63.49,32.33z M68.87,35.74l-0.14-0.05h0.14V35.74z"/>
	
		<linearGradient id="SVGID_00000158707760257709715580000003170330970006722735_" gradientUnits="userSpaceOnUse" x1="90.4592" y1="35.2567" x2="90.4592" y2="4.8729">
		<stop  offset="0" style="stop-color:#FFED00"/>
		<stop  offset="0.1363" style="stop-color:#FFEA00"/>
		<stop  offset="0.2633" style="stop-color:#FFE300"/>
		<stop  offset="0.3867" style="stop-color:#FFD700"/>
		<stop  offset="0.5078" style="stop-color:#FDC600"/>
		<stop  offset="0.6273" style="stop-color:#F8AE00"/>
		<stop  offset="0.7456" style="stop-color:#F18D00"/>
		<stop  offset="0.8629" style="stop-color:#EA620E"/>
		<stop  offset="0.9767" style="stop-color:#E32119"/>
		<stop  offset="1" style="stop-color:#E2001A"/>
	</linearGradient>
	<path style="fill:url(#SVGID_00000158707760257709715580000003170330970006722735_);stroke:#E2001A;stroke-miterlimit:10;" d="
		M100.5,34.87l-2.69,0.38l-0.29-0.82l-0.43,0.82l-0.34-0.14l-0.29,0.1l-0.82-0.19l0.14-0.91l-0.62-0.72v-1.06l-0.48,1.2l0.38,0.48
		l-0.14,1.01c-0.13,0.03-0.22,0.05-0.29,0.05c-0.06,0.03-0.16,0.06-0.29,0.1c-0.13,0-0.27-0.02-0.43-0.05c-0.13,0-0.27,0-0.43,0
		l-0.38-1.34l-0.67,1.3h-0.19c0.1-1.02,0.14-2.05,0.14-3.07c0.03-0.32,0.05-0.66,0.05-1.01c-0.67-0.03-1.34-0.08-2.02-0.14
		c-0.67-0.03-1.34-0.06-2.02-0.1c0.06,0.8,0.1,1.62,0.1,2.45v1.01l-1.87,0.24l-0.29-0.82l-0.38,0.86l-0.34-0.19l-0.34,0.1
		l-0.77-0.19l0.1-0.91l-0.62-0.72l0.05-1.06l-0.48,1.2l0.34,0.53l-0.14,0.96l-1.39,0.34l-0.43-1.58l-0.82,1.63l-0.34-0.14
		l-0.48,0.14l-0.1-4.32c0-0.29-0.02-0.58-0.05-0.86c-0.03-0.45-0.03-0.9,0-1.34l0.43-6.38c0-0.35,0-0.69,0-1.01
		c0-0.64,0.06-1.36,0.19-2.16c0.16-0.74,0.37-1.38,0.62-1.92c0.13-0.35,0.27-0.75,0.43-1.2l2.16-6.29l7.97-4.22l6.19,4.03l0.77,2.88
		l1.54,5.71c0.06,0.61,0.1,1.15,0.1,1.63c0,0.29,0,0.62,0,1.01l0.24,5.33c0,2.08-0.06,4.18-0.19,6.29
		C100.57,32.81,100.53,33.85,100.5,34.87z M81.83,31.22l0.29-0.77l-0.05-1.92l-0.53,2.4L81.83,31.22z M88.31,28.2l0.29,0.19
		c0.03-0.06,0.06-0.17,0.07-0.31s0.03-0.29,0.05-0.43c0.02-0.14,0.02-0.25,0.02-0.31c0-0.1,0-0.18,0-0.24c0-0.06,0-0.11,0-0.14
		c0-0.03,0.02-0.07,0.05-0.12c0.03-0.05,0.08-0.12,0.14-0.22c0.03,0,0.05-0.02,0.05-0.05v0.14c0,0.06,0,0.13,0,0.19
		c-0.03,0.1-0.05,0.18-0.05,0.24l0.1-0.29h0.05l0.05-0.05l0.14-0.05c0-0.19,0-0.35,0-0.48l0.1-0.1l-0.05,0.05
		c0,0.03,0.02,0.05,0.05,0.05h0.1v-0.05c0-0.03-0.02-0.05-0.05-0.05c0-0.03-0.01-0.06-0.02-0.07c-0.02-0.02-0.04-0.02-0.07-0.02
		v-0.1v-0.05c0.03-0.03,0.05-0.08,0.05-0.14v-0.1c-0.03,0-0.06,0.02-0.1,0.05c-0.03,0-0.06,0-0.07,0c-0.02,0-0.04,0-0.07,0
		c0,0.03,0,0.06,0,0.1c-0.03,0.03-0.05,0.08-0.05,0.14c0,0.06,0.01,0.1,0.02,0.12c0.02,0.02,0.02,0.04,0.02,0.07
		c0.03,0,0.06,0.02,0.07,0.05c0.02,0.03,0.02,0.08,0.02,0.14c0,0.03,0,0.06,0,0.07c0,0.02,0,0.04,0,0.07
		c-0.03,0-0.05,0.02-0.05,0.05c0-0.03,0-0.06,0-0.1c0-0.03-0.02-0.06-0.05-0.1c-0.03,0-0.06,0-0.1,0c-0.03,0-0.06,0-0.07,0
		s-0.04,0-0.07,0v-0.19v-0.14v-0.05h-0.05l-0.05-0.1h-0.05c0-0.06,0-0.11,0-0.14c0-0.03,0-0.06,0-0.1c0-0.16,0-0.29,0-0.38
		c0.03-0.13,0.04-0.23,0.02-0.31c-0.02-0.08-0.06-0.16-0.14-0.24c-0.08-0.08-0.23-0.17-0.46-0.26c0.03-0.06,0.06-0.16,0.07-0.29
		c0.02-0.13,0.02-0.26,0.02-0.41s0-0.25,0-0.31c0-0.1,0-0.19,0-0.29l-0.14,1.34c0.03,0.03,0.08,0.08,0.14,0.14
		c0.1,0.06,0.19,0.14,0.29,0.22c0.1,0.08,0.14,0.17,0.14,0.26c0,0.03-0.01,0.16-0.02,0.38c-0.02,0.22-0.04,0.47-0.07,0.74
		c-0.03,0.27-0.06,0.52-0.1,0.74c-0.03,0.22-0.05,0.35-0.05,0.38c-0.06,0.13-0.1,0.27-0.1,0.43c0,0.03,0.01,0.08,0.02,0.14
		c0.02,0.06,0.04,0.13,0.07,0.19l-0.1-0.05c0.03,0.03,0.04,0.06,0.02,0.07C88.37,28.19,88.34,28.2,88.31,28.2z M88.55,22.63
		c0.7,0.03,1.42,0.06,2.16,0.1c0.7,0.06,1.41,0.11,2.11,0.14c0-0.86,0.02-1.73,0.05-2.59c0-0.86,0-1.73,0-2.59
		c0-0.64-0.03-1.43-0.1-2.38c-0.06-0.94-0.26-1.7-0.58-2.28l-2.21,2.06c-0.35,1.09-0.66,2.33-0.94,3.72
		C88.78,20.21,88.61,21.48,88.55,22.63z M92.97,32.04l0.34-0.77l-0.1-1.92l-0.48,2.4L92.97,32.04z"/>
	
		<linearGradient id="SVGID_00000033328770625323654010000016020939407786214793_" gradientUnits="userSpaceOnUse" x1="115.5991" y1="35.0169" x2="115.5991" y2="4.9207">
		<stop  offset="0" style="stop-color:#FFED00"/>
		<stop  offset="0.1363" style="stop-color:#FFEA00"/>
		<stop  offset="0.2633" style="stop-color:#FFE300"/>
		<stop  offset="0.3867" style="stop-color:#FFD700"/>
		<stop  offset="0.5078" style="stop-color:#FDC600"/>
		<stop  offset="0.6273" style="stop-color:#F8AE00"/>
		<stop  offset="0.7456" style="stop-color:#F18D00"/>
		<stop  offset="0.8629" style="stop-color:#EA620E"/>
		<stop  offset="0.9767" style="stop-color:#E32119"/>
		<stop  offset="1" style="stop-color:#E2001A"/>
	</linearGradient>
	<path style="fill:url(#SVGID_00000033328770625323654010000016020939407786214793_);stroke:#E2001A;stroke-miterlimit:10;" d="
		M126.18,20.62c0,3.74,0.02,7.5,0.05,11.28c-0.26,0.13-0.74,0.38-1.44,0.77c-0.67,0.35-1.31,0.69-1.92,1.01
		c-0.61,0.32-0.99,0.51-1.15,0.58c-0.13,0.03-0.46,0.1-1.01,0.19c-0.54,0.1-1.14,0.18-1.78,0.26c-0.64,0.08-1.2,0.15-1.68,0.22
		c-0.26,0.03-0.45,0.06-0.58,0.1l-9.17-3.22l-2.54-9.36l2.4-11.28l8.83-6.24l5.38,1.58l4.37,3.55c-1.98,1.89-3.98,3.74-6,5.57
		l-1.49-1.78l-2.02-0.96l-2.78,4.66l-0.77,6.19l0.72,3.07l3.12,0.62c0.16,0,0.29-0.02,0.38-0.05c0.19,0,0.38-0.01,0.58-0.02
		c0.19-0.02,0.3-0.02,0.34-0.02c-0.03-2.21-0.05-4.42-0.05-6.62l0.53,0.38l2.26-0.34l0.29,0.72l0.34-0.72l0.29,0.14l0.29-0.1
		l0.67,0.19l-0.1,0.77l0.53,0.62l-0.05,0.91l0.43-1.06l-0.29-0.43l0.1-0.82l1.2-0.29l0.34,1.34l0.72-1.39l0.29,0.14l0.29-0.19
		H126.18z M124.89,23.54l-0.24,0.62l0.05,1.63l0.43-2.06L124.89,23.54z"/>
	
		<linearGradient id="SVGID_00000011713443274575484510000007028661798712938633_" gradientUnits="userSpaceOnUse" x1="140.4629" y1="34.5848" x2="140.4629" y2="5.2567">
		<stop  offset="0" style="stop-color:#FFED00"/>
		<stop  offset="0.1363" style="stop-color:#FFEA00"/>
		<stop  offset="0.2633" style="stop-color:#FFE300"/>
		<stop  offset="0.3867" style="stop-color:#FFD700"/>
		<stop  offset="0.5078" style="stop-color:#FDC600"/>
		<stop  offset="0.6273" style="stop-color:#F8AE00"/>
		<stop  offset="0.7456" style="stop-color:#F18D00"/>
		<stop  offset="0.8629" style="stop-color:#EA620E"/>
		<stop  offset="0.9767" style="stop-color:#E32119"/>
		<stop  offset="1" style="stop-color:#E2001A"/>
	</linearGradient>
	<path style="fill:url(#SVGID_00000011713443274575484510000007028661798712938633_);stroke:#E2001A;stroke-miterlimit:10;" d="
		M147.88,13.37c-5.7,0-11.41,0.06-17.14,0.19c0.06-0.86,0.08-1.73,0.05-2.59c0-0.29,0-0.58,0-0.86c0.03-0.64,0.06-1.26,0.1-1.87
		c0.06-0.93,0.1-1.87,0.1-2.83c1.89-0.03,3.76-0.05,5.62-0.05c2.85-0.06,5.68-0.1,8.5-0.1h2.78v0.1l-0.38,0.62l0.34,2.3l-0.67,0.24
		l0.67,0.34l-0.1,0.34l0.05,0.24l-0.14,0.67l-0.77-0.1l-0.58,0.58h-0.91l1.01,0.38l0.43-0.34l0.86,0.14c0,0.03,0.02,0.1,0.05,0.22
		c0.03,0.11,0.06,0.23,0.1,0.36c0,0.1,0.02,0.21,0.05,0.34v0.24l-1.25,0.38l1.25,0.62V13.37z M148.65,25.8
		c-0.03,0.16-0.05,0.29-0.05,0.38c-0.03,0.22-0.06,0.44-0.1,0.65c-0.03,0.21-0.05,0.33-0.05,0.36l0.67,1.82l-1.06,0.48l1.15,0.19
		l-0.38,1.78l0.86,0.96l-3.26,0.96l3.55-0.58l-0.34,0.77l0.53,0.14v0.05c-0.61,0.06-1.22,0.14-1.82,0.24
		c-1.06,0.19-2.1,0.32-3.12,0.38c-0.54,0.03-1.1,0.05-1.68,0.05c-0.35,0.03-0.72,0.05-1.1,0.05c-0.77,0.06-1.52,0.1-2.26,0.1
		c-0.22,0-0.43-0.02-0.62-0.05c-0.19-0.03-0.4-0.05-0.62-0.05c-0.29,0-0.61,0-0.96,0c-0.61,0-1.15-0.03-1.63-0.1
		c-0.13-0.03-0.28-0.08-0.46-0.14c-0.18-0.06-0.34-0.13-0.5-0.19c-0.06-0.03-0.13-0.06-0.19-0.1c-0.64-0.22-1.28-0.43-1.92-0.62
		c-0.13-0.06-0.27-0.11-0.43-0.14c-0.22-0.9-0.43-1.81-0.62-2.74c-0.19-0.9-0.4-1.79-0.62-2.69c-0.06-0.32-0.14-0.64-0.24-0.96
		c-0.19-0.58-0.32-1.15-0.38-1.73c-0.1-1.02-0.13-2.13-0.1-3.31c0-0.26,0-0.5,0-0.72c-0.03-0.77-0.05-1.54-0.05-2.3
		c-0.06-1.5-0.1-3.02-0.1-4.56v-0.19l0.72,0.48l2.3-0.34l0.24,0.72l0.38-0.72l0.29,0.14l0.24-0.1l0.67,0.14l-0.1,0.82l0.53,0.62
		v0.91l0.38-1.06l-0.29-0.43l0.14-0.82l1.15-0.29l0.38,1.34l0.72-1.39l0.19,0.1c0,0.16,0,0.32,0,0.48
		c-0.03,0.19-0.05,0.37-0.05,0.53c0,0.58,0,1.17,0,1.78l9.17-0.29c0.06,1.22,0.13,2.42,0.19,3.6c0.03,1.22,0.08,2.43,0.14,3.65
		c-1.57,0.06-3.12,0.11-4.66,0.14c-1.57,0.06-3.14,0.13-4.7,0.19v0.29c0,0.38,0.1,0.75,0.29,1.1c0.1,0.22,0.18,0.46,0.24,0.72
		c0.22,0.03,0.45,0.06,0.67,0.1c0.35,0.06,0.7,0.1,1.06,0.1C143.53,26.52,146.05,26.28,148.65,25.8z M137.89,16.92l-0.29,0.62
		l0.1,1.63l0.43-2.06L137.89,16.92z M145.14,12.46l-0.67-0.24l-1.58,0.1l2.06,0.38L145.14,12.46z"/>
</g>
<g>
	
		<linearGradient id="SVGID_00000004545422209514494110000017981817635288666022_" gradientUnits="userSpaceOnUse" x1="181.3337" y1="35.7366" x2="181.3337" y2="5.2567">
		<stop  offset="0" style="stop-color:#FFED00"/>
		<stop  offset="0.0228" style="stop-color:#FFE700"/>
		<stop  offset="0.1835" style="stop-color:#FBBD00"/>
		<stop  offset="0.3421" style="stop-color:#F29300"/>
		<stop  offset="0.4946" style="stop-color:#EB6D09"/>
		<stop  offset="0.64" style="stop-color:#E74C14"/>
		<stop  offset="0.7762" style="stop-color:#E42E18"/>
		<stop  offset="0.9" style="stop-color:#E30D19"/>
		<stop  offset="1" style="stop-color:#E2001A"/>
	</linearGradient>
	<path style="fill:url(#SVGID_00000004545422209514494110000017981817635288666022_);stroke:#9D391A;stroke-miterlimit:10;" d="
		M183.25,34.87l-1.63,0.24l-0.24-0.72L181,35.11l-0.29-0.14l-0.24,0.1l-0.67-0.14l0.1-0.82l-0.53-0.58v-0.91l-0.38,1.01l0.29,0.43
		l-0.14,0.86l-1.3-0.34l-0.24-0.77l-0.34,0.67l-1.82-0.43c-0.51-3.04-1.02-6.1-1.54-9.17c-0.54-3.07-1.07-6.13-1.58-9.17
		c-0.13-0.7-0.27-1.42-0.43-2.16c-0.19-0.99-0.37-1.97-0.53-2.93c-0.16-1.12-0.29-2.24-0.38-3.36c-0.06-0.58-0.13-1.14-0.19-1.68
		c0.1-0.03,0.21-0.06,0.34-0.07c0.13-0.02,0.24-0.02,0.34-0.02h1.68l0.19,0.48l0.24-0.48h1.3l-0.1,0.77l0.58,0.62l-0.05,0.91
		l0.43-1.01l-0.34-0.48l0.14-0.82h1.25l0.29,1.06l0.53-1.06h1.44c0.51,4.54,1.25,9.04,2.21,13.49l0.58-2.26l1.2-4.46
		c0.1-0.51,0.14-0.99,0.14-1.44c0.03-0.26,0.06-0.54,0.1-0.86l0.48-4.56c2.75,0,5.47-0.05,8.16-0.14v0.29c0,0.06,0,0.11,0,0.14
		c0,0.03,0,0.06,0,0.1l-1.87,10.32c-0.1,0.64-0.18,1.23-0.24,1.78c-0.1,1.02-0.32,2.16-0.67,3.41c-0.35,1.12-0.77,2.11-1.25,2.98
		c-0.22,0.45-0.46,0.96-0.72,1.54L183.25,34.87z M177.16,8.04l-0.24,0.67l0.05,1.58l0.43-2.02L177.16,8.04z M177.49,32.33l0.29-0.62
		l-0.1-1.63l-0.43,2.06L177.49,32.33z M182.87,35.74l-0.14-0.05h0.14V35.74z"/>
	
		<linearGradient id="SVGID_00000178917863660217950580000016442581178834070164_" gradientUnits="userSpaceOnUse" x1="204.4577" y1="35.2567" x2="204.4577" y2="4.8729">
		<stop  offset="0" style="stop-color:#FFED00"/>
		<stop  offset="0.0228" style="stop-color:#FFE700"/>
		<stop  offset="0.1835" style="stop-color:#FBBD00"/>
		<stop  offset="0.3421" style="stop-color:#F29300"/>
		<stop  offset="0.4946" style="stop-color:#EB6D09"/>
		<stop  offset="0.64" style="stop-color:#E74C14"/>
		<stop  offset="0.7762" style="stop-color:#E42E18"/>
		<stop  offset="0.9" style="stop-color:#E30D19"/>
		<stop  offset="1" style="stop-color:#E2001A"/>
	</linearGradient>
	<path style="fill:url(#SVGID_00000178917863660217950580000016442581178834070164_);stroke:#9D391A;stroke-miterlimit:10;" d="
		M214.5,34.87l-2.69,0.38l-0.29-0.82l-0.43,0.82l-0.34-0.14l-0.29,0.1l-0.82-0.19l0.14-0.91l-0.62-0.72v-1.06l-0.48,1.2l0.38,0.48
		l-0.14,1.01c-0.13,0.03-0.22,0.05-0.29,0.05c-0.06,0.03-0.16,0.06-0.29,0.1c-0.13,0-0.27-0.02-0.43-0.05c-0.13,0-0.27,0-0.43,0
		l-0.38-1.34l-0.67,1.3h-0.19c0.1-1.02,0.14-2.05,0.14-3.07c0.03-0.32,0.05-0.66,0.05-1.01c-0.67-0.03-1.34-0.08-2.02-0.14
		c-0.67-0.03-1.34-0.06-2.02-0.1c0.06,0.8,0.1,1.62,0.1,2.45v1.01l-1.87,0.24l-0.29-0.82l-0.38,0.86l-0.34-0.19l-0.34,0.1
		l-0.77-0.19l0.1-0.91l-0.62-0.72l0.05-1.06l-0.48,1.2l0.34,0.53l-0.14,0.96l-1.39,0.34l-0.43-1.58l-0.82,1.63l-0.34-0.14
		l-0.48,0.14l-0.1-4.32c0-0.29-0.02-0.58-0.05-0.86c-0.03-0.45-0.03-0.9,0-1.34l0.43-6.38c0-0.35,0-0.69,0-1.01
		c0-0.64,0.06-1.36,0.19-2.16c0.16-0.74,0.37-1.38,0.62-1.92c0.13-0.35,0.27-0.75,0.43-1.2l2.16-6.29l7.97-4.22l6.19,4.03l0.77,2.88
		l1.54,5.71c0.06,0.61,0.1,1.15,0.1,1.63c0,0.29,0,0.62,0,1.01l0.24,5.33c0,2.08-0.06,4.18-0.19,6.29
		C214.57,32.81,214.53,33.85,214.5,34.87z M195.83,31.22l0.29-0.77l-0.05-1.92l-0.53,2.4L195.83,31.22z M202.31,28.2l0.29,0.19
		c0.03-0.06,0.06-0.17,0.07-0.31s0.03-0.29,0.05-0.43c0.02-0.14,0.02-0.25,0.02-0.31c0-0.1,0-0.18,0-0.24c0-0.06,0-0.11,0-0.14
		c0-0.03,0.02-0.07,0.05-0.12c0.03-0.05,0.08-0.12,0.14-0.22c0.03,0,0.05-0.02,0.05-0.05v0.14c0,0.06,0,0.13,0,0.19
		c-0.03,0.1-0.05,0.18-0.05,0.24l0.1-0.29h0.05l0.05-0.05l0.14-0.05c0-0.19,0-0.35,0-0.48l0.1-0.1l-0.05,0.05
		c0,0.03,0.02,0.05,0.05,0.05h0.1v-0.05c0-0.03-0.02-0.05-0.05-0.05c0-0.03-0.01-0.06-0.02-0.07c-0.02-0.02-0.04-0.02-0.07-0.02
		v-0.1v-0.05c0.03-0.03,0.05-0.08,0.05-0.14v-0.1c-0.03,0-0.06,0.02-0.1,0.05c-0.03,0-0.06,0-0.07,0c-0.02,0-0.04,0-0.07,0
		c0,0.03,0,0.06,0,0.1c-0.03,0.03-0.05,0.08-0.05,0.14c0,0.06,0.01,0.1,0.02,0.12c0.02,0.02,0.02,0.04,0.02,0.07
		c0.03,0,0.06,0.02,0.07,0.05c0.02,0.03,0.02,0.08,0.02,0.14c0,0.03,0,0.06,0,0.07c0,0.02,0,0.04,0,0.07
		c-0.03,0-0.05,0.02-0.05,0.05c0-0.03,0-0.06,0-0.1c0-0.03-0.02-0.06-0.05-0.1c-0.03,0-0.06,0-0.1,0c-0.03,0-0.06,0-0.07,0
		s-0.04,0-0.07,0v-0.19v-0.14v-0.05h-0.05l-0.05-0.1h-0.05c0-0.06,0-0.11,0-0.14c0-0.03,0-0.06,0-0.1c0-0.16,0-0.29,0-0.38
		c0.03-0.13,0.04-0.23,0.02-0.31c-0.02-0.08-0.06-0.16-0.14-0.24c-0.08-0.08-0.23-0.17-0.46-0.26c0.03-0.06,0.06-0.16,0.07-0.29
		c0.02-0.13,0.02-0.26,0.02-0.41s0-0.25,0-0.31c0-0.1,0-0.19,0-0.29l-0.14,1.34c0.03,0.03,0.08,0.08,0.14,0.14
		c0.1,0.06,0.19,0.14,0.29,0.22c0.1,0.08,0.14,0.17,0.14,0.26c0,0.03-0.01,0.16-0.02,0.38c-0.02,0.22-0.04,0.47-0.07,0.74
		c-0.03,0.27-0.06,0.52-0.1,0.74c-0.03,0.22-0.05,0.35-0.05,0.38c-0.06,0.13-0.1,0.27-0.1,0.43c0,0.03,0.01,0.08,0.02,0.14
		c0.02,0.06,0.04,0.13,0.07,0.19l-0.1-0.05c0.03,0.03,0.04,0.06,0.02,0.07C202.37,28.19,202.34,28.2,202.31,28.2z M202.55,22.63
		c0.7,0.03,1.42,0.06,2.16,0.1c0.7,0.06,1.41,0.11,2.11,0.14c0-0.86,0.02-1.73,0.05-2.59c0-0.86,0-1.73,0-2.59
		c0-0.64-0.03-1.43-0.1-2.38c-0.06-0.94-0.26-1.7-0.58-2.28l-2.21,2.06c-0.35,1.09-0.66,2.33-0.94,3.72
		C202.78,20.21,202.61,21.48,202.55,22.63z M206.97,32.04l0.34-0.77l-0.1-1.92l-0.48,2.4L206.97,32.04z"/>
	
		<linearGradient id="SVGID_00000163030569558355208150000009085249094342862238_" gradientUnits="userSpaceOnUse" x1="230.0769" y1="38.2806" x2="230.0769" y2="5.6888">
		<stop  offset="0" style="stop-color:#FFED00"/>
		<stop  offset="0.0228" style="stop-color:#FFE700"/>
		<stop  offset="0.1835" style="stop-color:#FBBD00"/>
		<stop  offset="0.3421" style="stop-color:#F29300"/>
		<stop  offset="0.4946" style="stop-color:#EB6D09"/>
		<stop  offset="0.64" style="stop-color:#E74C14"/>
		<stop  offset="0.7762" style="stop-color:#E42E18"/>
		<stop  offset="0.9" style="stop-color:#E30D19"/>
		<stop  offset="1" style="stop-color:#E2001A"/>
	</linearGradient>
	<path style="fill:url(#SVGID_00000163030569558355208150000009085249094342862238_);stroke:#9D391A;stroke-miterlimit:10;" d="
		M218.24,6.12V5.98c0.45,0,0.91,0,1.39,0c0.96,0.03,1.9,0.03,2.83,0c0.99-0.03,1.97-0.08,2.93-0.14c1.22-0.1,2.43-0.14,3.65-0.14
		c0.06,0,0.38,0.06,0.96,0.17c0.58,0.11,1.26,0.25,2.06,0.41c0.8,0.16,1.6,0.32,2.4,0.48c0.74,0.13,1.38,0.25,1.92,0.36
		c0.54,0.11,0.91,0.18,1.1,0.22l3.94,7.06l-1.39,5.71l-3.31,4.94c1.5,3.07,3.23,6,5.18,8.78c-2.27,1.54-4.56,3.02-6.86,4.46
		c-1.7-2.43-3.25-4.94-4.66-7.54c-0.42,0.22-0.82,0.48-1.2,0.77l0.1,3.26c-2.75,0.1-5.5,0.18-8.26,0.24
		c-0.26-6.91-0.38-13.79-0.38-20.64l0.34,0.19l2.3-0.29l0.24,0.67l0.38-0.67l0.29,0.1l0.24-0.05l0.67,0.14l-0.1,0.77l0.53,0.62v0.91
		l0.38-1.01l-0.29-0.43l0.14-0.86l1.15-0.24l0.38,1.34l0.67-1.44l0.29,0.14l0.62-0.38l0.1,10.18l0.91-1.54l1.87-3.07
		c0.1-0.26,0.23-0.7,0.41-1.34s0.36-1.31,0.55-2.02c0.19-0.77,0.35-1.34,0.48-1.73c-0.51-0.26-1.14-0.46-1.87-0.62
		c-0.74-0.16-1.39-0.22-1.97-0.19h0.05l-8.78,0.14v-0.1h-2.26l0.67-0.43l-0.58-0.62l3.65-0.43l-3.41-0.05l0.58-1.1l-0.86-1.63
		l1.06-0.48l-1.15-0.19l0.14-1.92L218.24,6.12z M227.41,17.02l-0.29,0.67l0.1,1.63l0.43-2.06L227.41,17.02z"/>
	
		<linearGradient id="SVGID_00000012440287106340823540000007716601338177462664_" gradientUnits="userSpaceOnUse" x1="255.912" y1="35.2567" x2="255.912" y2="4.8729">
		<stop  offset="0" style="stop-color:#FFED00"/>
		<stop  offset="0.0228" style="stop-color:#FFE700"/>
		<stop  offset="0.1835" style="stop-color:#FBBD00"/>
		<stop  offset="0.3421" style="stop-color:#F29300"/>
		<stop  offset="0.4946" style="stop-color:#EB6D09"/>
		<stop  offset="0.64" style="stop-color:#E74C14"/>
		<stop  offset="0.7762" style="stop-color:#E42E18"/>
		<stop  offset="0.9" style="stop-color:#E30D19"/>
		<stop  offset="1" style="stop-color:#E2001A"/>
	</linearGradient>
	<path style="fill:url(#SVGID_00000012440287106340823540000007716601338177462664_);stroke:#9D391A;stroke-miterlimit:10;" d="
		M265.96,34.87l-2.69,0.38l-0.29-0.82l-0.43,0.82l-0.34-0.14l-0.29,0.1l-0.82-0.19l0.14-0.91l-0.62-0.72v-1.06l-0.48,1.2l0.38,0.48
		l-0.14,1.01c-0.13,0.03-0.22,0.05-0.29,0.05c-0.06,0.03-0.16,0.06-0.29,0.1c-0.13,0-0.27-0.02-0.43-0.05c-0.13,0-0.27,0-0.43,0
		l-0.38-1.34l-0.67,1.3h-0.19c0.1-1.02,0.14-2.05,0.14-3.07c0.03-0.32,0.05-0.66,0.05-1.01c-0.67-0.03-1.34-0.08-2.02-0.14
		c-0.67-0.03-1.34-0.06-2.02-0.1c0.06,0.8,0.1,1.62,0.1,2.45v1.01l-1.87,0.24l-0.29-0.82l-0.38,0.86l-0.34-0.19l-0.34,0.1
		l-0.77-0.19l0.1-0.91l-0.62-0.72l0.05-1.06l-0.48,1.2l0.34,0.53l-0.14,0.96l-1.39,0.34l-0.43-1.58l-0.82,1.63l-0.34-0.14
		l-0.48,0.14l-0.1-4.32c0-0.29-0.02-0.58-0.05-0.86c-0.03-0.45-0.03-0.9,0-1.34l0.43-6.38c0-0.35,0-0.69,0-1.01
		c0-0.64,0.06-1.36,0.19-2.16c0.16-0.74,0.37-1.38,0.62-1.92c0.13-0.35,0.27-0.75,0.43-1.2l2.16-6.29l7.97-4.22l6.19,4.03l0.77,2.88
		l1.54,5.71c0.06,0.61,0.1,1.15,0.1,1.63c0,0.29,0,0.62,0,1.01l0.24,5.33c0,2.08-0.06,4.18-0.19,6.29
		C266.02,32.81,265.99,33.85,265.96,34.87z M247.28,31.22l0.29-0.77l-0.05-1.92l-0.53,2.4L247.28,31.22z M253.76,28.2l0.29,0.19
		c0.03-0.06,0.05-0.17,0.07-0.31c0.02-0.14,0.03-0.29,0.05-0.43s0.02-0.25,0.02-0.31c0-0.1,0-0.18,0-0.24c0-0.06,0-0.11,0-0.14
		c0-0.03,0.02-0.07,0.05-0.12c0.03-0.05,0.08-0.12,0.14-0.22c0.03,0,0.05-0.02,0.05-0.05v0.14c0,0.06,0,0.13,0,0.19
		c-0.03,0.1-0.05,0.18-0.05,0.24l0.1-0.29h0.05l0.05-0.05l0.14-0.05c0-0.19,0-0.35,0-0.48l0.1-0.1l-0.05,0.05
		c0,0.03,0.02,0.05,0.05,0.05h0.1v-0.05c0-0.03-0.02-0.05-0.05-0.05c0-0.03-0.01-0.06-0.02-0.07c-0.02-0.02-0.04-0.02-0.07-0.02
		v-0.1v-0.05c0.03-0.03,0.05-0.08,0.05-0.14v-0.1c-0.03,0-0.06,0.02-0.1,0.05c-0.03,0-0.06,0-0.07,0c-0.02,0-0.04,0-0.07,0
		c0,0.03,0,0.06,0,0.1c-0.03,0.03-0.05,0.08-0.05,0.14c0,0.06,0.01,0.1,0.02,0.12c0.02,0.02,0.02,0.04,0.02,0.07
		c0.03,0,0.06,0.02,0.07,0.05c0.02,0.03,0.02,0.08,0.02,0.14c0,0.03,0,0.06,0,0.07c0,0.02,0,0.04,0,0.07
		c-0.03,0-0.05,0.02-0.05,0.05c0-0.03,0-0.06,0-0.1c0-0.03-0.02-0.06-0.05-0.1c-0.03,0-0.06,0-0.1,0c-0.03,0-0.06,0-0.07,0
		c-0.02,0-0.04,0-0.07,0v-0.19v-0.14v-0.05h-0.05l-0.05-0.1h-0.05c0-0.06,0-0.11,0-0.14c0-0.03,0-0.06,0-0.1c0-0.16,0-0.29,0-0.38
		c0.03-0.13,0.04-0.23,0.02-0.31c-0.02-0.08-0.07-0.16-0.14-0.24c-0.08-0.08-0.23-0.17-0.46-0.26c0.03-0.06,0.06-0.16,0.07-0.29
		c0.02-0.13,0.02-0.26,0.02-0.41s0-0.25,0-0.31c0-0.1,0-0.19,0-0.29l-0.14,1.34c0.03,0.03,0.08,0.08,0.14,0.14
		c0.1,0.06,0.19,0.14,0.29,0.22c0.1,0.08,0.14,0.17,0.14,0.26c0,0.03-0.01,0.16-0.02,0.38c-0.02,0.22-0.04,0.47-0.07,0.74
		c-0.03,0.27-0.07,0.52-0.1,0.74c-0.03,0.22-0.05,0.35-0.05,0.38c-0.06,0.13-0.1,0.27-0.1,0.43c0,0.03,0.01,0.08,0.02,0.14
		c0.02,0.06,0.04,0.13,0.07,0.19l-0.1-0.05c0.03,0.03,0.04,0.06,0.02,0.07C253.82,28.19,253.8,28.2,253.76,28.2z M254,22.63
		c0.7,0.03,1.42,0.06,2.16,0.1c0.7,0.06,1.41,0.11,2.11,0.14c0-0.86,0.02-1.73,0.05-2.59c0-0.86,0-1.73,0-2.59
		c0-0.64-0.03-1.43-0.1-2.38c-0.06-0.94-0.26-1.7-0.58-2.28l-2.21,2.06c-0.35,1.09-0.67,2.33-0.94,3.72S254.07,21.48,254,22.63z
		 M258.42,32.04l0.34-0.77l-0.1-1.92l-0.48,2.4L258.42,32.04z"/>
	
		<linearGradient id="SVGID_00000080170446348719633920000001815784381564105637_" gradientUnits="userSpaceOnUse" x1="281.6287" y1="37.6566" x2="281.6287" y2="5.3528">
		<stop  offset="0" style="stop-color:#FFED00"/>
		<stop  offset="0.0228" style="stop-color:#FFE700"/>
		<stop  offset="0.1835" style="stop-color:#FBBD00"/>
		<stop  offset="0.3421" style="stop-color:#F29300"/>
		<stop  offset="0.4946" style="stop-color:#EB6D09"/>
		<stop  offset="0.64" style="stop-color:#E74C14"/>
		<stop  offset="0.7762" style="stop-color:#E42E18"/>
		<stop  offset="0.9" style="stop-color:#E30D19"/>
		<stop  offset="1" style="stop-color:#E2001A"/>
	</linearGradient>
	<path style="fill:url(#SVGID_00000080170446348719633920000001815784381564105637_);stroke:#9D391A;stroke-miterlimit:10;" d="
		M290.39,37.66l-0.53-0.14l-0.43-0.43l-2.26-0.29l-0.1-0.72l-0.53,0.58l-0.24-0.24l-0.29,0.05l-0.58-0.34l0.29-0.72l-0.34-0.77
		l0.24-0.86l-0.67,0.91l0.19,0.48l-0.34,0.77l-1.2-0.05v-1.39l-1.06,1.2l-0.14-0.14l0.38-2.74l0.82-5.47
		c0.06-0.67,0.08-1.25,0.05-1.73c0-0.35,0.02-0.75,0.05-1.2l0.24-5.81c0-0.74-0.06-1.5-0.19-2.3c-0.03-0.38-0.06-0.75-0.1-1.1
		l-1.87-2.35l-1.34,0.34l-1.1,0.77c0,1.73,0,3.44,0,5.14c-0.03,1.73-0.05,3.46-0.05,5.18c0,2.08,0.03,4.14,0.1,6.19
		c0.03,1.38,0.06,2.75,0.1,4.13c-2.75,0.06-5.5,0.14-8.26,0.24c-0.1-4.54-0.14-9.09-0.14-13.63c0-5.18,0.03-10.35,0.1-15.5
		l2.02-0.29l0.29,0.72l0.34-0.72l0.29,0.14l0.29-0.1l0.62,0.19l-0.1,0.77l0.58,0.62l-0.05,0.91l0.43-1.06l-0.34-0.43l0.14-0.82
		l1.15-0.29l0.38,1.34l0.67-1.34h0.19l0.14,0.1l0.1-0.1l1.1,0.05v1.06c1.76-0.61,3.47-0.91,5.14-0.91l6.38,5.23l0.82,6
		c0.06,0.42,0.13,0.8,0.19,1.15c0.13,0.48,0.19,1.1,0.19,1.87l-0.29,6c0,0.32-0.02,0.62-0.05,0.91c0,0.61-0.03,1.3-0.1,2.06
		l-0.91,5.9L290.39,37.66z M277.33,8.18l-0.24,0.62l0.05,1.63l0.43-2.06L277.33,8.18z M283.86,33.05l0.43-0.58l0.38-1.58l-0.96,1.87
		L283.86,33.05z"/>
</g>
</svg>
